<?xml version="1.0" encoding="UTF-8" standalone="no"?>
<!DOCTYPE svg PUBLIC "-//W3C//DTD SVG 1.1//EN" "http://www.w3.org/Graphics/SVG/1.1/DTD/svg11.dtd">
<svg width="100%" height="100%" viewBox="0 0 4725 4725" version="1.1" xmlns="http://www.w3.org/2000/svg" xmlns:xlink="http://www.w3.org/1999/xlink" xml:space="preserve" xmlns:serif="http://www.serif.com/" style="fill-rule:evenodd;clip-rule:evenodd;stroke-linejoin:round;stroke-miterlimit:2;">
    <g transform="matrix(0.699653,0,0,0.699653,658.253,472.651)">
        <g transform="matrix(1.64965,0,0,1.5282,-2713.73,-278.85)">
            <path d="M2741.54,2813.89L2908.49,2864.92L3024.48,2917.99L3040.69,3029.67L2958.04,3164.07L2713.24,3136.46L2664.51,3002.74L2741.54,2813.89Z" style="fill:rgb(118,118,117);"/>
        </g>
        <g transform="matrix(1.84467,0,0,1.84467,-1994.21,-1261.96)">
            <path d="M2693.41,2888.04L2908.49,2864.92L3024.48,2917.99L3040.69,3029.67L2930.62,3119.35L2713.24,3136.46L2664.51,3002.74L2693.41,2888.04Z" style="fill:rgb(118,118,117);"/>
        </g>
        <g transform="matrix(1.84467,0,0,1.84467,-1994.21,-1261.96)">
            <path d="M3040.89,3045.95L3040.89,3417.1L2855.51,3693.18L2155.83,3693.18L1890.21,3456.96L1890.21,3045.95L3040.89,3045.95Z" style="fill:rgb(237,248,250);"/>
        </g>
        <g transform="matrix(1.42928,0,0,1.42928,-940.828,-675.551)">
            <path d="M902.787,3950.2C905.881,3726.15 914.919,3530.9 939.276,3497.31C983.454,3436.38 1819.31,3444.46 1819.31,3444.46L1906.08,3626.34L2005.73,3728.51L2151.8,3783.57L2305.19,3871.18L2382.22,3977.2L2425.29,3941.75C2425.29,3941.75 2560.21,3885.47 2524,3827.87C2487.79,3770.26 2673.41,3728.51 2673.41,3728.51L2917.08,3728.51L3181.7,3531.31L3237.77,3444.46C3237.77,3444.46 3803.08,3463.36 3983.22,3444.46C4034.6,3439.07 4071.1,3541.88 4097.03,3691.62C3707.76,4212.92 3086.08,4550.64 2386.14,4550.64C1809.98,4550.64 1286.84,4321.81 902.787,3950.2Z" style="fill:rgb(128,127,127);"/>
        </g>
        <g transform="matrix(1.84467,0,0,1.84467,-1994.21,-1261.96)">
            <path d="M2168.45,2922.35C2168.45,2922.35 2075.48,2848.12 2054.33,2922.35C2033.18,2996.58 2022.68,3078.69 2119.51,3153.51C2216.35,3228.32 2400.77,3222.79 2415.88,3342C2430.99,3461.22 2495.66,3123.05 2664.61,3186.47C2833.56,3249.89 3050.57,2951.6 2982.97,2922.35C2915.36,2893.1 2765.01,2922.35 2765.01,2922.35L2638.8,2868.46L2698.87,2801.75C2698.87,2801.75 2919.3,2740.3 2982.97,2801.75C3046.63,2863.19 3228.3,2980.26 3128.44,3048.48C3028.57,3116.71 2973.19,3214.89 2850.98,3232.05C2728.77,3249.2 2585.08,3173.64 2581.08,3275.21C2577.07,3376.78 2433.93,3395.52 2415.88,3508.54C2397.82,3621.56 2419.42,3456.3 2351.23,3364.76C2283.04,3273.22 2053.95,3272.68 2054.33,3232.05C2054.71,3191.42 1916.17,2967.22 1925.2,2959.8C1934.23,2952.39 2008.15,2756.38 2119.51,2845.86C2230.87,2935.34 2317.11,2868.46 2317.11,2868.46L2317.11,2922.35L2168.45,2922.35Z" style="fill:rgb(124,138,141);"/>
        </g>
        <g transform="matrix(1.71154,-0.372037,0.330847,1.92463,-1416.54,-433.511)">
            <path d="M1393.44,1702.25C1393.44,1702.25 1270.38,1568.48 1247.5,1665.17C1224.62,1761.85 1186.31,2001.5 1317.24,1941.49C1448.18,1881.49 1415.61,1895.69 1407.83,1894.32" style="fill:rgb(255,229,200);"/>
        </g>
        <g transform="matrix(-1.73812,-0.149952,-0.13335,1.95451,6214.1,-780.303)">
            <path d="M1393.44,1702.25C1393.44,1702.25 1270.38,1568.48 1247.5,1665.17C1224.62,1761.85 1186.31,2001.5 1317.24,1941.49C1448.18,1881.49 1415.61,1895.69 1407.83,1894.32" style="fill:rgb(255,229,200);"/>
        </g>
        <g transform="matrix(1,0,0,1.56709,-77.3823,-1981.74)">
            <path d="M2096.18,3360.4C2096.18,3360.4 2125.39,3581.12 2145.83,3731.9C2155.95,3806.57 2107.77,3875.67 2096.18,3915.41C2061.17,4035.41 2047.32,4059.27 2353.49,4059.95C2659.67,4060.63 3101.38,4092.36 3170.51,3997.6C3199.72,3957.56 3122.49,3855.72 3118.55,3731.9C3113.17,3562.63 3173.05,3356.89 3170.51,3253.96" style="fill:rgb(235,211,186);"/>
        </g>
        <g transform="matrix(1.84467,0,0,1.84467,-1994.21,-1261.96)">
            <path d="M2088.92,3033.65C2088.92,3010.72 2107.51,2992.14 2130.43,2992.14L2780.78,2992.14C2792.39,2992.14 2803.53,2996.75 2811.74,3004.96C2819.95,3013.17 2824.56,3024.3 2824.56,3035.91L2824.56,3054.14C2824.56,3075.82 2806.98,3093.4 2785.3,3093.4L2184.66,3093.4C2159.51,3093.4 2134.78,3086.97 2112.82,3074.72C2112.82,3074.72 2112.82,3074.72 2112.82,3074.72C2098.07,3066.49 2088.92,3050.92 2088.92,3034.02C2088.92,3033.9 2088.92,3033.78 2088.92,3033.65Z" style="fill:white;"/>
        </g>
        <g transform="matrix(1.00035,0.0428922,-0.0451795,1.0537,150.291,-13.0186)">
            <path d="M1343.1,2254.07C1343.1,2254.07 1419.18,2667.97 1536.35,2977.23C1628.58,3220.66 1963.88,3374.34 2145.09,3541.11C2244.86,3632.93 2269.03,3641.36 2314.94,3647.67C2336.35,3650.62 2641.31,3647.69 2650.63,3647.67C2759.26,3647.44 2771.97,3608.99 2939.32,3437.11C3121.5,3249.99 3502.71,2979.02 3607.03,2587.97C3800.46,1862.85 3463.24,1272.38 3480.73,1273.11L2382,906.494L1576.89,1273.11L1274.85,1731.27L1343.1,2254.07Z" style="fill:rgb(255,229,200);"/>
        </g>
        <g transform="matrix(2.03728,0,0,2.03728,-1519.08,-1703.8)">
            <path d="M2127.64,2145.12C2127.64,2145.12 2083.2,1951.58 2212.74,1952.72C2335.85,1953.8 2296.96,2137.45 2296.96,2137.45C2246.85,2144.83 2278.95,2137.38 2127.64,2145.12Z" style="fill:white;"/>
        </g>
        <g transform="matrix(2.03728,0,0,2.03728,-2437.4,-1703.8)">
            <path d="M2127.64,2145.12C2127.64,2145.12 2083.2,1951.58 2212.74,1952.72C2335.85,1953.8 2296.96,2137.45 2296.96,2137.45C2246.85,2144.83 2278.95,2137.38 2127.64,2145.12Z" style="fill:white;"/>
        </g>
        <g transform="matrix(1.84467,0,0,1.84467,-1988.18,-1381.57)">
            <ellipse cx="2216.93" cy="2068.47" rx="34.463" ry="32.477" style="fill:rgb(65,90,58);"/>
        </g>
        <g transform="matrix(1.84467,0,0,1.84467,-1072.98,-1397.63)">
            <ellipse cx="2216.93" cy="2068.47" rx="34.463" ry="32.477" style="fill:rgb(65,90,58);"/>
        </g>
        <g transform="matrix(1.84467,0,0,1.84467,-1902.85,-1277.3)">
            <path d="M2204.11,2545.36C2204.11,2545.36 2231.59,2495.99 2255.53,2490.21" style="fill:rgb(229,206,181);"/>
        </g>
        <g transform="matrix(-5.45093,-5.89704,5.74566,-5.311,223.466,29900.2)">
            <path d="M2204.11,2545.36C2204.11,2545.36 2208.14,2527.24 2220.64,2512.12C2229.62,2501.26 2245.53,2492.62 2255.53,2490.21" style="fill:rgb(229,206,181);"/>
        </g>
        <g transform="matrix(-1.84467,0,0,1.84467,6946.77,-1278.75)">
            <path d="M2204.11,2545.36C2204.11,2545.36 2231.59,2495.99 2255.53,2490.21" style="fill:rgb(229,206,181);"/>
        </g>
        <g transform="matrix(1.84467,-5.12e-17,0,1.84467,-1947.09,-1220.78)">
            <path d="M2428.32,1931.99C2428.32,1931.99 2445.45,2140.41 2454.72,2209.83C2460.44,2252.68 2477.44,2367.8 2477.44,2367.8L2390.38,2367.8" style="fill:rgb(234,211,185);"/>
        </g>
        <g transform="matrix(2.1434,-0.460618,0.387574,1.8035,-3252.5,-235.296)">
            <path d="M2014.11,1842.84L2229.2,1842.84C2229.2,1842.84 2281.55,1836.64 2292.36,1818.46C2303.17,1800.29 2234.95,1895.99 2241,1919.42C2247.05,1942.85 2072.71,1859.01 2045.96,1901.33C2019.21,1943.66 2014.11,1842.84 2014.11,1842.84Z" style="fill:rgb(75,43,12);"/>
        </g>
        <g transform="matrix(-2.1005,-0.417558,-0.359665,1.80927,8200.7,-340.992)">
            <path d="M2014.11,1842.84L2229.2,1842.84C2229.2,1842.84 2281.55,1836.64 2292.36,1818.46C2303.17,1800.29 2234.95,1895.99 2241,1919.42C2247.05,1942.85 2072.71,1859.01 2045.96,1901.33C2019.21,1943.66 2014.11,1842.84 2014.11,1842.84Z" style="fill:rgb(75,43,12);"/>
        </g>
        <g transform="matrix(1.01889,0.0436871,-0.0400164,0.933284,153.954,44.8356)">
            <path d="M1342.78,2687.64C1342.78,2687.64 1175.32,1873.15 1128.27,1828.35C1081.22,1783.54 948.958,1351.45 905.824,1323.85C855.68,1291.76 1154.14,876.846 1423.37,970.791C1522.9,1005.52 1544.53,673.249 1555.85,666.354C1567.16,659.458 1886.11,416.96 2093.69,333.951C2301.28,250.941 2447.81,244.69 2541.65,232.675C2635.49,220.659 2831.09,214.356 2901.08,191.37C2971.06,168.385 3006.72,201.888 3000.94,119.192C2995.16,36.496 3057.54,228.182 3000.94,275.72C2944.35,323.259 3168.62,238.438 3160.57,119.192C3152.53,-0.055 3541.59,646.485 3057.43,874.948C2573.27,1103.41 3130.69,758.557 3460.83,1026.18C3790.97,1293.81 3839.41,1589.56 3732.5,1522.29C3700.4,1502.09 3597.11,1522.99 3585.41,1564.93C3557.96,1663.34 3602.76,1852.83 3611.25,1904.39C3623.67,1979.87 3584.36,2461.87 3589.92,2541.66C3595.47,2621.45 3515.52,2418.76 3515.52,2418.76C3515.52,2418.76 3454.2,1791.76 3428.68,1676.43C3359.25,1362.53 2753.66,1588.71 2535.31,1438.4C2430.54,1366.29 2359.63,1694.77 2351.82,1726.84C2345.65,1752.19 2231.05,1404.12 2137.8,1457.01C1871.55,1608.02 1341.09,1536.65 1385.74,1816.3C1451.12,2225.84 1383.41,2563.05 1383.41,2563.05L1342.78,2687.64Z" style="fill:rgb(75,43,12);"/>
        </g>
    </g>
</svg>
